<mxfile host="app.diagrams.net" modified="2024-04-23T14:55:19.174Z" agent="Mozilla/5.0 (Windows NT 10.0; Win64; x64) AppleWebKit/537.36 (KHTML, like Gecko) Chrome/124.0.0.0 Safari/537.36" etag="0UDjr4HFYPQkdsLv4WAw" version="24.2.8" type="github" pages="2">
  <diagram name="Page-1" id="5REuDCuRyIkmtdfbOiAd">
    <mxGraphModel dx="1079" dy="446" grid="1" gridSize="10" guides="1" tooltips="1" connect="1" arrows="1" fold="1" page="1" pageScale="1" pageWidth="850" pageHeight="1100" math="0" shadow="0">
      <root>
        <mxCell id="0" />
        <mxCell id="1" parent="0" />
        <mxCell id="D-Ly7Y-iKg0-jCqWXi5g-61" value="" style="rounded=0;whiteSpace=wrap;html=1;" parent="1" vertex="1">
          <mxGeometry x="40" y="100" width="120" height="60" as="geometry" />
        </mxCell>
        <mxCell id="D-Ly7Y-iKg0-jCqWXi5g-62" value="Procurador" style="text;html=1;align=center;verticalAlign=middle;whiteSpace=wrap;rounded=0;" parent="1" vertex="1">
          <mxGeometry x="70" y="115" width="60" height="30" as="geometry" />
        </mxCell>
        <mxCell id="D-Ly7Y-iKg0-jCqWXi5g-63" value="" style="rounded=0;whiteSpace=wrap;html=1;" parent="1" vertex="1">
          <mxGeometry x="365" y="100" width="120" height="60" as="geometry" />
        </mxCell>
        <mxCell id="D-Ly7Y-iKg0-jCqWXi5g-64" value="Asunto" style="text;html=1;align=center;verticalAlign=middle;whiteSpace=wrap;rounded=0;" parent="1" vertex="1">
          <mxGeometry x="395" y="115" width="60" height="30" as="geometry" />
        </mxCell>
        <mxCell id="D-Ly7Y-iKg0-jCqWXi5g-65" value="" style="rounded=0;whiteSpace=wrap;html=1;" parent="1" vertex="1">
          <mxGeometry x="700" y="100" width="120" height="60" as="geometry" />
        </mxCell>
        <mxCell id="D-Ly7Y-iKg0-jCqWXi5g-66" value="Cliente" style="text;html=1;align=center;verticalAlign=middle;whiteSpace=wrap;rounded=0;" parent="1" vertex="1">
          <mxGeometry x="730" y="115" width="60" height="30" as="geometry" />
        </mxCell>
        <mxCell id="D-Ly7Y-iKg0-jCqWXi5g-69" style="edgeStyle=orthogonalEdgeStyle;rounded=0;orthogonalLoop=1;jettySize=auto;html=1;exitX=1;exitY=0.5;exitDx=0;exitDy=0;entryX=0;entryY=0.5;entryDx=0;entryDy=0;" parent="1" source="D-Ly7Y-iKg0-jCqWXi5g-67" target="D-Ly7Y-iKg0-jCqWXi5g-63" edge="1">
          <mxGeometry relative="1" as="geometry" />
        </mxCell>
        <mxCell id="D-Ly7Y-iKg0-jCqWXi5g-70" style="edgeStyle=orthogonalEdgeStyle;rounded=0;orthogonalLoop=1;jettySize=auto;html=1;exitX=0;exitY=0.5;exitDx=0;exitDy=0;entryX=1;entryY=0.5;entryDx=0;entryDy=0;" parent="1" source="D-Ly7Y-iKg0-jCqWXi5g-67" target="D-Ly7Y-iKg0-jCqWXi5g-61" edge="1">
          <mxGeometry relative="1" as="geometry" />
        </mxCell>
        <mxCell id="D-Ly7Y-iKg0-jCqWXi5g-67" value="Lleva" style="shape=rhombus;perimeter=rhombusPerimeter;whiteSpace=wrap;html=1;align=center;" parent="1" vertex="1">
          <mxGeometry x="200" y="100" width="120" height="60" as="geometry" />
        </mxCell>
        <mxCell id="D-Ly7Y-iKg0-jCqWXi5g-71" style="edgeStyle=orthogonalEdgeStyle;rounded=0;orthogonalLoop=1;jettySize=auto;html=1;exitX=0;exitY=0.5;exitDx=0;exitDy=0;entryX=1;entryY=0.5;entryDx=0;entryDy=0;" parent="1" source="D-Ly7Y-iKg0-jCqWXi5g-68" target="D-Ly7Y-iKg0-jCqWXi5g-63" edge="1">
          <mxGeometry relative="1" as="geometry" />
        </mxCell>
        <mxCell id="D-Ly7Y-iKg0-jCqWXi5g-72" style="edgeStyle=orthogonalEdgeStyle;rounded=0;orthogonalLoop=1;jettySize=auto;html=1;exitX=1;exitY=0.5;exitDx=0;exitDy=0;entryX=0;entryY=0.5;entryDx=0;entryDy=0;" parent="1" source="D-Ly7Y-iKg0-jCqWXi5g-68" target="D-Ly7Y-iKg0-jCqWXi5g-65" edge="1">
          <mxGeometry relative="1" as="geometry" />
        </mxCell>
        <mxCell id="D-Ly7Y-iKg0-jCqWXi5g-68" value="Pertenece" style="shape=rhombus;perimeter=rhombusPerimeter;whiteSpace=wrap;html=1;align=center;" parent="1" vertex="1">
          <mxGeometry x="540" y="100" width="120" height="60" as="geometry" />
        </mxCell>
        <mxCell id="D-Ly7Y-iKg0-jCqWXi5g-78" style="edgeStyle=orthogonalEdgeStyle;rounded=0;orthogonalLoop=1;jettySize=auto;html=1;exitX=0.5;exitY=1;exitDx=0;exitDy=0;entryX=0.25;entryY=0;entryDx=0;entryDy=0;" parent="1" source="D-Ly7Y-iKg0-jCqWXi5g-73" target="D-Ly7Y-iKg0-jCqWXi5g-63" edge="1">
          <mxGeometry relative="1" as="geometry" />
        </mxCell>
        <mxCell id="D-Ly7Y-iKg0-jCqWXi5g-73" value="Fecha inicio" style="ellipse;whiteSpace=wrap;html=1;align=center;" parent="1" vertex="1">
          <mxGeometry x="310" y="20" width="100" height="40" as="geometry" />
        </mxCell>
        <mxCell id="D-Ly7Y-iKg0-jCqWXi5g-77" style="edgeStyle=orthogonalEdgeStyle;rounded=0;orthogonalLoop=1;jettySize=auto;html=1;exitX=0.5;exitY=1;exitDx=0;exitDy=0;entryX=0.75;entryY=0;entryDx=0;entryDy=0;" parent="1" source="D-Ly7Y-iKg0-jCqWXi5g-74" target="D-Ly7Y-iKg0-jCqWXi5g-63" edge="1">
          <mxGeometry relative="1" as="geometry" />
        </mxCell>
        <mxCell id="D-Ly7Y-iKg0-jCqWXi5g-74" value="Expediente" style="ellipse;whiteSpace=wrap;html=1;align=center;fontStyle=4;" parent="1" vertex="1">
          <mxGeometry x="440" y="20" width="100" height="40" as="geometry" />
        </mxCell>
        <mxCell id="D-Ly7Y-iKg0-jCqWXi5g-79" style="edgeStyle=orthogonalEdgeStyle;rounded=0;orthogonalLoop=1;jettySize=auto;html=1;exitX=0.5;exitY=0;exitDx=0;exitDy=0;entryX=0.5;entryY=1;entryDx=0;entryDy=0;" parent="1" source="D-Ly7Y-iKg0-jCqWXi5g-75" target="D-Ly7Y-iKg0-jCqWXi5g-63" edge="1">
          <mxGeometry relative="1" as="geometry" />
        </mxCell>
        <mxCell id="D-Ly7Y-iKg0-jCqWXi5g-75" value="Fecha finalización" style="ellipse;whiteSpace=wrap;html=1;align=center;" parent="1" vertex="1">
          <mxGeometry x="375" y="200" width="100" height="40" as="geometry" />
        </mxCell>
        <mxCell id="D-Ly7Y-iKg0-jCqWXi5g-84" style="edgeStyle=orthogonalEdgeStyle;rounded=0;orthogonalLoop=1;jettySize=auto;html=1;exitX=0.5;exitY=1;exitDx=0;exitDy=0;entryX=0.75;entryY=0;entryDx=0;entryDy=0;" parent="1" source="D-Ly7Y-iKg0-jCqWXi5g-80" target="D-Ly7Y-iKg0-jCqWXi5g-65" edge="1">
          <mxGeometry relative="1" as="geometry" />
        </mxCell>
        <mxCell id="D-Ly7Y-iKg0-jCqWXi5g-80" value="Nombre" style="ellipse;whiteSpace=wrap;html=1;align=center;" parent="1" vertex="1">
          <mxGeometry x="740" y="20" width="100" height="40" as="geometry" />
        </mxCell>
        <mxCell id="D-Ly7Y-iKg0-jCqWXi5g-83" style="edgeStyle=orthogonalEdgeStyle;rounded=0;orthogonalLoop=1;jettySize=auto;html=1;exitX=0.5;exitY=1;exitDx=0;exitDy=0;entryX=0.25;entryY=0;entryDx=0;entryDy=0;" parent="1" source="D-Ly7Y-iKg0-jCqWXi5g-81" target="D-Ly7Y-iKg0-jCqWXi5g-65" edge="1">
          <mxGeometry relative="1" as="geometry" />
        </mxCell>
        <mxCell id="D-Ly7Y-iKg0-jCqWXi5g-81" value="DNI" style="ellipse;whiteSpace=wrap;html=1;align=center;fontStyle=4;" parent="1" vertex="1">
          <mxGeometry x="630" y="20" width="100" height="40" as="geometry" />
        </mxCell>
        <mxCell id="D-Ly7Y-iKg0-jCqWXi5g-85" style="edgeStyle=orthogonalEdgeStyle;rounded=0;orthogonalLoop=1;jettySize=auto;html=1;exitX=0.5;exitY=0;exitDx=0;exitDy=0;entryX=0.5;entryY=1;entryDx=0;entryDy=0;" parent="1" source="D-Ly7Y-iKg0-jCqWXi5g-82" target="D-Ly7Y-iKg0-jCqWXi5g-65" edge="1">
          <mxGeometry relative="1" as="geometry" />
        </mxCell>
        <mxCell id="D-Ly7Y-iKg0-jCqWXi5g-82" value="Dirección" style="ellipse;whiteSpace=wrap;html=1;align=center;" parent="1" vertex="1">
          <mxGeometry x="710" y="200" width="100" height="40" as="geometry" />
        </mxCell>
        <mxCell id="D-Ly7Y-iKg0-jCqWXi5g-86" value="Nombre" style="ellipse;whiteSpace=wrap;html=1;align=center;" parent="1" vertex="1">
          <mxGeometry x="10" y="20" width="100" height="40" as="geometry" />
        </mxCell>
        <mxCell id="D-Ly7Y-iKg0-jCqWXi5g-90" style="edgeStyle=orthogonalEdgeStyle;rounded=0;orthogonalLoop=1;jettySize=auto;html=1;exitX=0.5;exitY=1;exitDx=0;exitDy=0;entryX=0.75;entryY=0;entryDx=0;entryDy=0;" parent="1" source="D-Ly7Y-iKg0-jCqWXi5g-87" target="D-Ly7Y-iKg0-jCqWXi5g-61" edge="1">
          <mxGeometry relative="1" as="geometry" />
        </mxCell>
        <mxCell id="D-Ly7Y-iKg0-jCqWXi5g-87" value="DNI" style="ellipse;whiteSpace=wrap;html=1;align=center;fontStyle=4;" parent="1" vertex="1">
          <mxGeometry x="130" y="20" width="100" height="40" as="geometry" />
        </mxCell>
        <mxCell id="D-Ly7Y-iKg0-jCqWXi5g-91" style="edgeStyle=orthogonalEdgeStyle;rounded=0;orthogonalLoop=1;jettySize=auto;html=1;exitX=0.5;exitY=0;exitDx=0;exitDy=0;entryX=0.5;entryY=1;entryDx=0;entryDy=0;" parent="1" source="D-Ly7Y-iKg0-jCqWXi5g-88" target="D-Ly7Y-iKg0-jCqWXi5g-61" edge="1">
          <mxGeometry relative="1" as="geometry" />
        </mxCell>
        <mxCell id="D-Ly7Y-iKg0-jCqWXi5g-88" value="Dirección" style="ellipse;whiteSpace=wrap;html=1;align=center;" parent="1" vertex="1">
          <mxGeometry x="50" y="200" width="100" height="40" as="geometry" />
        </mxCell>
        <mxCell id="D-Ly7Y-iKg0-jCqWXi5g-89" style="edgeStyle=orthogonalEdgeStyle;rounded=0;orthogonalLoop=1;jettySize=auto;html=1;exitX=0.5;exitY=1;exitDx=0;exitDy=0;entryX=0.314;entryY=-0.044;entryDx=0;entryDy=0;entryPerimeter=0;" parent="1" source="D-Ly7Y-iKg0-jCqWXi5g-86" target="D-Ly7Y-iKg0-jCqWXi5g-61" edge="1">
          <mxGeometry relative="1" as="geometry" />
        </mxCell>
        <mxCell id="D-Ly7Y-iKg0-jCqWXi5g-92" value="(n,m)" style="text;html=1;align=center;verticalAlign=middle;whiteSpace=wrap;rounded=0;" parent="1" vertex="1">
          <mxGeometry x="230" y="70" width="60" height="30" as="geometry" />
        </mxCell>
        <mxCell id="D-Ly7Y-iKg0-jCqWXi5g-93" value="(1,n)" style="text;html=1;align=center;verticalAlign=middle;whiteSpace=wrap;rounded=0;" parent="1" vertex="1">
          <mxGeometry x="570" y="70" width="60" height="30" as="geometry" />
        </mxCell>
        <mxCell id="D-Ly7Y-iKg0-jCqWXi5g-94" value="Zoo" style="whiteSpace=wrap;html=1;align=center;" parent="1" vertex="1">
          <mxGeometry x="190" y="390" width="100" height="40" as="geometry" />
        </mxCell>
        <mxCell id="D-Ly7Y-iKg0-jCqWXi5g-95" value="Animal" style="whiteSpace=wrap;html=1;align=center;" parent="1" vertex="1">
          <mxGeometry x="510" y="390" width="100" height="40" as="geometry" />
        </mxCell>
        <mxCell id="D-Ly7Y-iKg0-jCqWXi5g-110" style="edgeStyle=orthogonalEdgeStyle;rounded=0;orthogonalLoop=1;jettySize=auto;html=1;exitX=1;exitY=1;exitDx=0;exitDy=0;entryX=0.25;entryY=0;entryDx=0;entryDy=0;" parent="1" source="D-Ly7Y-iKg0-jCqWXi5g-96" target="D-Ly7Y-iKg0-jCqWXi5g-94" edge="1">
          <mxGeometry relative="1" as="geometry">
            <Array as="points">
              <mxPoint x="175" y="380" />
              <mxPoint x="210" y="380" />
              <mxPoint x="210" y="370" />
              <mxPoint x="215" y="370" />
            </Array>
          </mxGeometry>
        </mxCell>
        <mxCell id="D-Ly7Y-iKg0-jCqWXi5g-96" value="Nombre" style="ellipse;whiteSpace=wrap;html=1;align=center;fontStyle=4;" parent="1" vertex="1">
          <mxGeometry x="90" y="320" width="100" height="40" as="geometry" />
        </mxCell>
        <mxCell id="D-Ly7Y-iKg0-jCqWXi5g-109" style="edgeStyle=orthogonalEdgeStyle;rounded=0;orthogonalLoop=1;jettySize=auto;html=1;exitX=0.5;exitY=1;exitDx=0;exitDy=0;entryX=0.75;entryY=0;entryDx=0;entryDy=0;" parent="1" source="D-Ly7Y-iKg0-jCqWXi5g-97" target="D-Ly7Y-iKg0-jCqWXi5g-94" edge="1">
          <mxGeometry relative="1" as="geometry" />
        </mxCell>
        <mxCell id="D-Ly7Y-iKg0-jCqWXi5g-97" value="Ciudad" style="ellipse;whiteSpace=wrap;html=1;align=center;" parent="1" vertex="1">
          <mxGeometry x="210" y="310" width="100" height="40" as="geometry" />
        </mxCell>
        <mxCell id="D-Ly7Y-iKg0-jCqWXi5g-111" style="edgeStyle=orthogonalEdgeStyle;rounded=0;orthogonalLoop=1;jettySize=auto;html=1;exitX=1;exitY=0.5;exitDx=0;exitDy=0;entryX=0;entryY=0.5;entryDx=0;entryDy=0;" parent="1" source="D-Ly7Y-iKg0-jCqWXi5g-98" target="D-Ly7Y-iKg0-jCqWXi5g-94" edge="1">
          <mxGeometry relative="1" as="geometry" />
        </mxCell>
        <mxCell id="D-Ly7Y-iKg0-jCqWXi5g-98" value="País" style="ellipse;whiteSpace=wrap;html=1;align=center;" parent="1" vertex="1">
          <mxGeometry x="40" y="380" width="100" height="40" as="geometry" />
        </mxCell>
        <mxCell id="D-Ly7Y-iKg0-jCqWXi5g-112" style="edgeStyle=orthogonalEdgeStyle;rounded=0;orthogonalLoop=1;jettySize=auto;html=1;exitX=1;exitY=0;exitDx=0;exitDy=0;entryX=0.25;entryY=1;entryDx=0;entryDy=0;" parent="1" source="D-Ly7Y-iKg0-jCqWXi5g-99" target="D-Ly7Y-iKg0-jCqWXi5g-94" edge="1">
          <mxGeometry relative="1" as="geometry" />
        </mxCell>
        <mxCell id="D-Ly7Y-iKg0-jCqWXi5g-99" value="Tamaño" style="ellipse;whiteSpace=wrap;html=1;align=center;" parent="1" vertex="1">
          <mxGeometry x="80" y="450" width="100" height="40" as="geometry" />
        </mxCell>
        <mxCell id="D-Ly7Y-iKg0-jCqWXi5g-113" style="edgeStyle=orthogonalEdgeStyle;rounded=0;orthogonalLoop=1;jettySize=auto;html=1;exitX=0.5;exitY=0;exitDx=0;exitDy=0;entryX=0.75;entryY=1;entryDx=0;entryDy=0;" parent="1" source="D-Ly7Y-iKg0-jCqWXi5g-100" target="D-Ly7Y-iKg0-jCqWXi5g-94" edge="1">
          <mxGeometry relative="1" as="geometry" />
        </mxCell>
        <mxCell id="D-Ly7Y-iKg0-jCqWXi5g-100" value="Presupuesto" style="ellipse;whiteSpace=wrap;html=1;align=center;" parent="1" vertex="1">
          <mxGeometry x="200" y="460" width="100" height="40" as="geometry" />
        </mxCell>
        <mxCell id="D-Ly7Y-iKg0-jCqWXi5g-114" style="edgeStyle=orthogonalEdgeStyle;rounded=0;orthogonalLoop=1;jettySize=auto;html=1;exitX=0.5;exitY=1;exitDx=0;exitDy=0;entryX=0.25;entryY=0;entryDx=0;entryDy=0;" parent="1" source="D-Ly7Y-iKg0-jCqWXi5g-101" target="D-Ly7Y-iKg0-jCqWXi5g-95" edge="1">
          <mxGeometry relative="1" as="geometry" />
        </mxCell>
        <mxCell id="D-Ly7Y-iKg0-jCqWXi5g-101" value="Identificación" style="ellipse;whiteSpace=wrap;html=1;align=center;fontStyle=4;" parent="1" vertex="1">
          <mxGeometry x="460" y="310" width="100" height="40" as="geometry" />
        </mxCell>
        <mxCell id="D-Ly7Y-iKg0-jCqWXi5g-115" style="edgeStyle=orthogonalEdgeStyle;rounded=0;orthogonalLoop=1;jettySize=auto;html=1;exitX=0.5;exitY=1;exitDx=0;exitDy=0;entryX=0.75;entryY=0;entryDx=0;entryDy=0;" parent="1" source="D-Ly7Y-iKg0-jCqWXi5g-102" target="D-Ly7Y-iKg0-jCqWXi5g-95" edge="1">
          <mxGeometry relative="1" as="geometry" />
        </mxCell>
        <mxCell id="D-Ly7Y-iKg0-jCqWXi5g-102" value="Sexo" style="ellipse;whiteSpace=wrap;html=1;align=center;" parent="1" vertex="1">
          <mxGeometry x="580" y="310" width="100" height="40" as="geometry" />
        </mxCell>
        <mxCell id="D-Ly7Y-iKg0-jCqWXi5g-121" style="edgeStyle=orthogonalEdgeStyle;rounded=0;orthogonalLoop=1;jettySize=auto;html=1;exitX=1;exitY=0.5;exitDx=0;exitDy=0;entryX=0;entryY=0.5;entryDx=0;entryDy=0;" parent="1" source="D-Ly7Y-iKg0-jCqWXi5g-103" target="D-Ly7Y-iKg0-jCqWXi5g-95" edge="1">
          <mxGeometry relative="1" as="geometry" />
        </mxCell>
        <mxCell id="D-Ly7Y-iKg0-jCqWXi5g-122" style="edgeStyle=orthogonalEdgeStyle;rounded=0;orthogonalLoop=1;jettySize=auto;html=1;exitX=0;exitY=0.5;exitDx=0;exitDy=0;entryX=1;entryY=0.5;entryDx=0;entryDy=0;" parent="1" source="D-Ly7Y-iKg0-jCqWXi5g-103" target="D-Ly7Y-iKg0-jCqWXi5g-94" edge="1">
          <mxGeometry relative="1" as="geometry" />
        </mxCell>
        <mxCell id="D-Ly7Y-iKg0-jCqWXi5g-103" value="Posee" style="shape=rhombus;perimeter=rhombusPerimeter;whiteSpace=wrap;html=1;align=center;" parent="1" vertex="1">
          <mxGeometry x="340" y="380" width="120" height="60" as="geometry" />
        </mxCell>
        <mxCell id="D-Ly7Y-iKg0-jCqWXi5g-116" style="edgeStyle=orthogonalEdgeStyle;rounded=0;orthogonalLoop=1;jettySize=auto;html=1;exitX=0;exitY=1;exitDx=0;exitDy=0;entryX=1;entryY=0.25;entryDx=0;entryDy=0;" parent="1" source="D-Ly7Y-iKg0-jCqWXi5g-104" target="D-Ly7Y-iKg0-jCqWXi5g-95" edge="1">
          <mxGeometry relative="1" as="geometry" />
        </mxCell>
        <mxCell id="D-Ly7Y-iKg0-jCqWXi5g-104" value="Año" style="ellipse;whiteSpace=wrap;html=1;align=center;" parent="1" vertex="1">
          <mxGeometry x="650" y="350" width="100" height="40" as="geometry" />
        </mxCell>
        <mxCell id="D-Ly7Y-iKg0-jCqWXi5g-117" style="edgeStyle=orthogonalEdgeStyle;rounded=0;orthogonalLoop=1;jettySize=auto;html=1;exitX=0;exitY=0.5;exitDx=0;exitDy=0;entryX=1;entryY=0.75;entryDx=0;entryDy=0;" parent="1" source="D-Ly7Y-iKg0-jCqWXi5g-105" target="D-Ly7Y-iKg0-jCqWXi5g-95" edge="1">
          <mxGeometry relative="1" as="geometry" />
        </mxCell>
        <mxCell id="D-Ly7Y-iKg0-jCqWXi5g-105" value="País" style="ellipse;whiteSpace=wrap;html=1;align=center;" parent="1" vertex="1">
          <mxGeometry x="650" y="400" width="100" height="40" as="geometry" />
        </mxCell>
        <mxCell id="D-Ly7Y-iKg0-jCqWXi5g-118" style="edgeStyle=orthogonalEdgeStyle;rounded=0;orthogonalLoop=1;jettySize=auto;html=1;exitX=0;exitY=0;exitDx=0;exitDy=0;entryX=1;entryY=1;entryDx=0;entryDy=0;" parent="1" source="D-Ly7Y-iKg0-jCqWXi5g-106" target="D-Ly7Y-iKg0-jCqWXi5g-95" edge="1">
          <mxGeometry relative="1" as="geometry" />
        </mxCell>
        <mxCell id="D-Ly7Y-iKg0-jCqWXi5g-106" value="Continente" style="ellipse;whiteSpace=wrap;html=1;align=center;" parent="1" vertex="1">
          <mxGeometry x="630" y="450" width="100" height="40" as="geometry" />
        </mxCell>
        <mxCell id="D-Ly7Y-iKg0-jCqWXi5g-107" value="Especie" style="whiteSpace=wrap;html=1;align=center;" parent="1" vertex="1">
          <mxGeometry x="510" y="570" width="100" height="40" as="geometry" />
        </mxCell>
        <mxCell id="D-Ly7Y-iKg0-jCqWXi5g-119" style="edgeStyle=orthogonalEdgeStyle;rounded=0;orthogonalLoop=1;jettySize=auto;html=1;exitX=0.5;exitY=0;exitDx=0;exitDy=0;entryX=0.5;entryY=1;entryDx=0;entryDy=0;" parent="1" source="D-Ly7Y-iKg0-jCqWXi5g-108" target="D-Ly7Y-iKg0-jCqWXi5g-95" edge="1">
          <mxGeometry relative="1" as="geometry" />
        </mxCell>
        <mxCell id="D-Ly7Y-iKg0-jCqWXi5g-120" style="edgeStyle=orthogonalEdgeStyle;rounded=0;orthogonalLoop=1;jettySize=auto;html=1;exitX=0.5;exitY=1;exitDx=0;exitDy=0;entryX=0.5;entryY=0;entryDx=0;entryDy=0;" parent="1" source="D-Ly7Y-iKg0-jCqWXi5g-108" target="D-Ly7Y-iKg0-jCqWXi5g-107" edge="1">
          <mxGeometry relative="1" as="geometry" />
        </mxCell>
        <mxCell id="D-Ly7Y-iKg0-jCqWXi5g-108" value="Pertenece" style="shape=rhombus;perimeter=rhombusPerimeter;whiteSpace=wrap;html=1;align=center;" parent="1" vertex="1">
          <mxGeometry x="500" y="470" width="120" height="60" as="geometry" />
        </mxCell>
        <mxCell id="D-Ly7Y-iKg0-jCqWXi5g-131" style="edgeStyle=orthogonalEdgeStyle;rounded=0;orthogonalLoop=1;jettySize=auto;html=1;exitX=0;exitY=0.5;exitDx=0;exitDy=0;entryX=1;entryY=0.25;entryDx=0;entryDy=0;" parent="1" source="D-Ly7Y-iKg0-jCqWXi5g-123" target="D-Ly7Y-iKg0-jCqWXi5g-107" edge="1">
          <mxGeometry relative="1" as="geometry" />
        </mxCell>
        <mxCell id="D-Ly7Y-iKg0-jCqWXi5g-123" value="N Cientifico" style="ellipse;whiteSpace=wrap;html=1;align=center;fontStyle=4;" parent="1" vertex="1">
          <mxGeometry x="640" y="530" width="100" height="40" as="geometry" />
        </mxCell>
        <mxCell id="D-Ly7Y-iKg0-jCqWXi5g-132" style="edgeStyle=orthogonalEdgeStyle;rounded=0;orthogonalLoop=1;jettySize=auto;html=1;exitX=0;exitY=0.5;exitDx=0;exitDy=0;entryX=1;entryY=0.75;entryDx=0;entryDy=0;" parent="1" source="D-Ly7Y-iKg0-jCqWXi5g-124" target="D-Ly7Y-iKg0-jCqWXi5g-107" edge="1">
          <mxGeometry relative="1" as="geometry" />
        </mxCell>
        <mxCell id="D-Ly7Y-iKg0-jCqWXi5g-124" value="N Vulgar" style="ellipse;whiteSpace=wrap;html=1;align=center;" parent="1" vertex="1">
          <mxGeometry x="650" y="590" width="100" height="40" as="geometry" />
        </mxCell>
        <mxCell id="D-Ly7Y-iKg0-jCqWXi5g-127" style="edgeStyle=orthogonalEdgeStyle;rounded=0;orthogonalLoop=1;jettySize=auto;html=1;exitX=1;exitY=1;exitDx=0;exitDy=0;entryX=0;entryY=0.25;entryDx=0;entryDy=0;" parent="1" source="D-Ly7Y-iKg0-jCqWXi5g-125" target="D-Ly7Y-iKg0-jCqWXi5g-107" edge="1">
          <mxGeometry relative="1" as="geometry" />
        </mxCell>
        <mxCell id="D-Ly7Y-iKg0-jCqWXi5g-125" value="Familia" style="ellipse;whiteSpace=wrap;html=1;align=center;" parent="1" vertex="1">
          <mxGeometry x="385" y="530" width="100" height="40" as="geometry" />
        </mxCell>
        <mxCell id="D-Ly7Y-iKg0-jCqWXi5g-128" style="edgeStyle=orthogonalEdgeStyle;rounded=0;orthogonalLoop=1;jettySize=auto;html=1;exitX=1;exitY=0;exitDx=0;exitDy=0;entryX=0;entryY=0.5;entryDx=0;entryDy=0;" parent="1" source="D-Ly7Y-iKg0-jCqWXi5g-126" target="D-Ly7Y-iKg0-jCqWXi5g-107" edge="1">
          <mxGeometry relative="1" as="geometry" />
        </mxCell>
        <mxCell id="D-Ly7Y-iKg0-jCqWXi5g-126" value="Peligro" style="ellipse;whiteSpace=wrap;html=1;align=center;" parent="1" vertex="1">
          <mxGeometry x="385" y="590" width="100" height="40" as="geometry" />
        </mxCell>
        <mxCell id="D-Ly7Y-iKg0-jCqWXi5g-129" value="(1,n)" style="text;html=1;align=center;verticalAlign=middle;whiteSpace=wrap;rounded=0;" parent="1" vertex="1">
          <mxGeometry x="370" y="355" width="60" height="30" as="geometry" />
        </mxCell>
        <mxCell id="D-Ly7Y-iKg0-jCqWXi5g-130" value="(1,n)" style="text;html=1;align=center;verticalAlign=middle;whiteSpace=wrap;rounded=0;" parent="1" vertex="1">
          <mxGeometry x="455" y="485" width="60" height="30" as="geometry" />
        </mxCell>
        <mxCell id="D-Ly7Y-iKg0-jCqWXi5g-133" value="Socio" style="whiteSpace=wrap;html=1;align=center;" parent="1" vertex="1">
          <mxGeometry x="240" y="710" width="100" height="40" as="geometry" />
        </mxCell>
        <mxCell id="D-Ly7Y-iKg0-jCqWXi5g-134" value="Datos" style="ellipse;whiteSpace=wrap;html=1;align=center;" parent="1" vertex="1">
          <mxGeometry x="170" y="650" width="100" height="40" as="geometry" />
        </mxCell>
        <mxCell id="D-Ly7Y-iKg0-jCqWXi5g-135" style="edgeStyle=orthogonalEdgeStyle;rounded=0;orthogonalLoop=1;jettySize=auto;html=1;exitX=1;exitY=1;exitDx=0;exitDy=0;entryX=0.377;entryY=-0.033;entryDx=0;entryDy=0;entryPerimeter=0;" parent="1" source="D-Ly7Y-iKg0-jCqWXi5g-134" target="D-Ly7Y-iKg0-jCqWXi5g-133" edge="1">
          <mxGeometry relative="1" as="geometry" />
        </mxCell>
        <mxCell id="D-Ly7Y-iKg0-jCqWXi5g-136" value="Barco" style="whiteSpace=wrap;html=1;align=center;" parent="1" vertex="1">
          <mxGeometry x="240" y="910" width="100" height="40" as="geometry" />
        </mxCell>
        <mxCell id="D-Ly7Y-iKg0-jCqWXi5g-138" style="edgeStyle=orthogonalEdgeStyle;rounded=0;orthogonalLoop=1;jettySize=auto;html=1;exitX=0.5;exitY=0;exitDx=0;exitDy=0;entryX=0.5;entryY=1;entryDx=0;entryDy=0;" parent="1" source="D-Ly7Y-iKg0-jCqWXi5g-137" target="D-Ly7Y-iKg0-jCqWXi5g-133" edge="1">
          <mxGeometry relative="1" as="geometry" />
        </mxCell>
        <mxCell id="D-Ly7Y-iKg0-jCqWXi5g-139" style="edgeStyle=orthogonalEdgeStyle;rounded=0;orthogonalLoop=1;jettySize=auto;html=1;exitX=0.5;exitY=1;exitDx=0;exitDy=0;entryX=0.5;entryY=0;entryDx=0;entryDy=0;" parent="1" source="D-Ly7Y-iKg0-jCqWXi5g-137" target="D-Ly7Y-iKg0-jCqWXi5g-136" edge="1">
          <mxGeometry relative="1" as="geometry" />
        </mxCell>
        <mxCell id="D-Ly7Y-iKg0-jCqWXi5g-137" value="Posee" style="shape=rhombus;perimeter=rhombusPerimeter;whiteSpace=wrap;html=1;align=center;" parent="1" vertex="1">
          <mxGeometry x="230" y="800" width="120" height="60" as="geometry" />
        </mxCell>
        <mxCell id="D-Ly7Y-iKg0-jCqWXi5g-140" value="Salidas" style="whiteSpace=wrap;html=1;align=center;" parent="1" vertex="1">
          <mxGeometry x="515" y="910" width="100" height="40" as="geometry" />
        </mxCell>
        <mxCell id="D-Ly7Y-iKg0-jCqWXi5g-141" value="Patrón" style="whiteSpace=wrap;html=1;align=center;" parent="1" vertex="1">
          <mxGeometry x="520" y="710" width="100" height="40" as="geometry" />
        </mxCell>
        <mxCell id="D-Ly7Y-iKg0-jCqWXi5g-144" style="edgeStyle=orthogonalEdgeStyle;rounded=0;orthogonalLoop=1;jettySize=auto;html=1;exitX=1;exitY=0.5;exitDx=0;exitDy=0;entryX=0;entryY=0.5;entryDx=0;entryDy=0;" parent="1" source="D-Ly7Y-iKg0-jCqWXi5g-142" target="D-Ly7Y-iKg0-jCqWXi5g-140" edge="1">
          <mxGeometry relative="1" as="geometry" />
        </mxCell>
        <mxCell id="D-Ly7Y-iKg0-jCqWXi5g-145" style="edgeStyle=orthogonalEdgeStyle;rounded=0;orthogonalLoop=1;jettySize=auto;html=1;exitX=0;exitY=0.5;exitDx=0;exitDy=0;entryX=1;entryY=0.5;entryDx=0;entryDy=0;" parent="1" source="D-Ly7Y-iKg0-jCqWXi5g-142" target="D-Ly7Y-iKg0-jCqWXi5g-136" edge="1">
          <mxGeometry relative="1" as="geometry" />
        </mxCell>
        <mxCell id="D-Ly7Y-iKg0-jCqWXi5g-142" value="Realiza" style="shape=rhombus;perimeter=rhombusPerimeter;whiteSpace=wrap;html=1;align=center;" parent="1" vertex="1">
          <mxGeometry x="370" y="900" width="120" height="60" as="geometry" />
        </mxCell>
        <mxCell id="D-Ly7Y-iKg0-jCqWXi5g-148" style="edgeStyle=orthogonalEdgeStyle;rounded=0;orthogonalLoop=1;jettySize=auto;html=1;exitX=0;exitY=1;exitDx=0;exitDy=0;entryX=1;entryY=0;entryDx=0;entryDy=0;" parent="1" source="D-Ly7Y-iKg0-jCqWXi5g-143" target="D-Ly7Y-iKg0-jCqWXi5g-136" edge="1">
          <mxGeometry relative="1" as="geometry" />
        </mxCell>
        <mxCell id="D-Ly7Y-iKg0-jCqWXi5g-149" style="edgeStyle=orthogonalEdgeStyle;rounded=0;orthogonalLoop=1;jettySize=auto;html=1;exitX=1;exitY=0;exitDx=0;exitDy=0;entryX=0.5;entryY=1;entryDx=0;entryDy=0;" parent="1" source="D-Ly7Y-iKg0-jCqWXi5g-143" target="D-Ly7Y-iKg0-jCqWXi5g-141" edge="1">
          <mxGeometry relative="1" as="geometry" />
        </mxCell>
        <mxCell id="D-Ly7Y-iKg0-jCqWXi5g-143" value="Tiene" style="shape=rhombus;perimeter=rhombusPerimeter;whiteSpace=wrap;html=1;align=center;" parent="1" vertex="1">
          <mxGeometry x="380" y="800" width="120" height="60" as="geometry" />
        </mxCell>
        <mxCell id="D-Ly7Y-iKg0-jCqWXi5g-151" style="edgeStyle=orthogonalEdgeStyle;rounded=0;orthogonalLoop=1;jettySize=auto;html=1;exitX=0;exitY=0.5;exitDx=0;exitDy=0;entryX=1;entryY=0.5;entryDx=0;entryDy=0;" parent="1" source="D-Ly7Y-iKg0-jCqWXi5g-150" target="D-Ly7Y-iKg0-jCqWXi5g-133" edge="1">
          <mxGeometry relative="1" as="geometry" />
        </mxCell>
        <mxCell id="D-Ly7Y-iKg0-jCqWXi5g-153" style="edgeStyle=orthogonalEdgeStyle;rounded=0;orthogonalLoop=1;jettySize=auto;html=1;exitX=1;exitY=0.5;exitDx=0;exitDy=0;entryX=0;entryY=0.5;entryDx=0;entryDy=0;" parent="1" source="D-Ly7Y-iKg0-jCqWXi5g-150" target="D-Ly7Y-iKg0-jCqWXi5g-141" edge="1">
          <mxGeometry relative="1" as="geometry" />
        </mxCell>
        <mxCell id="D-Ly7Y-iKg0-jCqWXi5g-150" value="Es" style="shape=rhombus;perimeter=rhombusPerimeter;whiteSpace=wrap;html=1;align=center;" parent="1" vertex="1">
          <mxGeometry x="370" y="700" width="120" height="60" as="geometry" />
        </mxCell>
        <mxCell id="D-Ly7Y-iKg0-jCqWXi5g-155" style="edgeStyle=orthogonalEdgeStyle;rounded=0;orthogonalLoop=1;jettySize=auto;html=1;exitX=1;exitY=1;exitDx=0;exitDy=0;entryX=0;entryY=0;entryDx=0;entryDy=0;" parent="1" source="D-Ly7Y-iKg0-jCqWXi5g-154" target="D-Ly7Y-iKg0-jCqWXi5g-136" edge="1">
          <mxGeometry relative="1" as="geometry" />
        </mxCell>
        <mxCell id="D-Ly7Y-iKg0-jCqWXi5g-154" value="Matricula" style="ellipse;whiteSpace=wrap;html=1;align=center;fontStyle=4;" parent="1" vertex="1">
          <mxGeometry x="160" y="860" width="100" height="40" as="geometry" />
        </mxCell>
        <mxCell id="D-Ly7Y-iKg0-jCqWXi5g-159" style="edgeStyle=orthogonalEdgeStyle;rounded=0;orthogonalLoop=1;jettySize=auto;html=1;exitX=1;exitY=0.5;exitDx=0;exitDy=0;entryX=0;entryY=0.5;entryDx=0;entryDy=0;" parent="1" source="D-Ly7Y-iKg0-jCqWXi5g-156" target="D-Ly7Y-iKg0-jCqWXi5g-136" edge="1">
          <mxGeometry relative="1" as="geometry" />
        </mxCell>
        <mxCell id="D-Ly7Y-iKg0-jCqWXi5g-156" value="Nombre" style="ellipse;whiteSpace=wrap;html=1;align=center;" parent="1" vertex="1">
          <mxGeometry x="100" y="910" width="100" height="40" as="geometry" />
        </mxCell>
        <mxCell id="D-Ly7Y-iKg0-jCqWXi5g-160" style="edgeStyle=orthogonalEdgeStyle;rounded=0;orthogonalLoop=1;jettySize=auto;html=1;exitX=1;exitY=0;exitDx=0;exitDy=0;entryX=0.25;entryY=1;entryDx=0;entryDy=0;" parent="1" source="D-Ly7Y-iKg0-jCqWXi5g-157" target="D-Ly7Y-iKg0-jCqWXi5g-136" edge="1">
          <mxGeometry relative="1" as="geometry" />
        </mxCell>
        <mxCell id="D-Ly7Y-iKg0-jCqWXi5g-157" value="Amarre" style="ellipse;whiteSpace=wrap;html=1;align=center;" parent="1" vertex="1">
          <mxGeometry x="160" y="970" width="100" height="40" as="geometry" />
        </mxCell>
        <mxCell id="D-Ly7Y-iKg0-jCqWXi5g-158" value="Cuota" style="ellipse;whiteSpace=wrap;html=1;align=center;" parent="1" vertex="1">
          <mxGeometry x="275" y="970" width="100" height="40" as="geometry" />
        </mxCell>
        <mxCell id="D-Ly7Y-iKg0-jCqWXi5g-161" style="edgeStyle=orthogonalEdgeStyle;rounded=0;orthogonalLoop=1;jettySize=auto;html=1;exitX=0.5;exitY=0;exitDx=0;exitDy=0;entryX=0.837;entryY=1.017;entryDx=0;entryDy=0;entryPerimeter=0;" parent="1" source="D-Ly7Y-iKg0-jCqWXi5g-158" target="D-Ly7Y-iKg0-jCqWXi5g-136" edge="1">
          <mxGeometry relative="1" as="geometry" />
        </mxCell>
        <mxCell id="D-Ly7Y-iKg0-jCqWXi5g-162" value="Fecha" style="ellipse;whiteSpace=wrap;html=1;align=center;" parent="1" vertex="1">
          <mxGeometry x="600" y="840" width="100" height="40" as="geometry" />
        </mxCell>
        <mxCell id="D-Ly7Y-iKg0-jCqWXi5g-168" style="edgeStyle=orthogonalEdgeStyle;rounded=0;orthogonalLoop=1;jettySize=auto;html=1;exitX=0;exitY=1;exitDx=0;exitDy=0;entryX=1;entryY=0.5;entryDx=0;entryDy=0;" parent="1" source="D-Ly7Y-iKg0-jCqWXi5g-163" target="D-Ly7Y-iKg0-jCqWXi5g-140" edge="1">
          <mxGeometry relative="1" as="geometry" />
        </mxCell>
        <mxCell id="D-Ly7Y-iKg0-jCqWXi5g-163" value="Hora" style="ellipse;whiteSpace=wrap;html=1;align=center;" parent="1" vertex="1">
          <mxGeometry x="670" y="890" width="100" height="40" as="geometry" />
        </mxCell>
        <mxCell id="D-Ly7Y-iKg0-jCqWXi5g-169" style="edgeStyle=orthogonalEdgeStyle;rounded=0;orthogonalLoop=1;jettySize=auto;html=1;exitX=0;exitY=0.5;exitDx=0;exitDy=0;entryX=0.75;entryY=1;entryDx=0;entryDy=0;" parent="1" source="D-Ly7Y-iKg0-jCqWXi5g-164" target="D-Ly7Y-iKg0-jCqWXi5g-140" edge="1">
          <mxGeometry relative="1" as="geometry" />
        </mxCell>
        <mxCell id="D-Ly7Y-iKg0-jCqWXi5g-164" value="Destino" style="ellipse;whiteSpace=wrap;html=1;align=center;" parent="1" vertex="1">
          <mxGeometry x="630" y="960" width="100" height="40" as="geometry" />
        </mxCell>
        <mxCell id="D-Ly7Y-iKg0-jCqWXi5g-166" style="edgeStyle=orthogonalEdgeStyle;rounded=0;orthogonalLoop=1;jettySize=auto;html=1;exitX=0;exitY=1;exitDx=0;exitDy=0;entryX=1;entryY=0;entryDx=0;entryDy=0;" parent="1" source="D-Ly7Y-iKg0-jCqWXi5g-165" target="D-Ly7Y-iKg0-jCqWXi5g-141" edge="1">
          <mxGeometry relative="1" as="geometry" />
        </mxCell>
        <mxCell id="D-Ly7Y-iKg0-jCqWXi5g-165" value="Datos" style="ellipse;whiteSpace=wrap;html=1;align=center;" parent="1" vertex="1">
          <mxGeometry x="660" y="650" width="100" height="40" as="geometry" />
        </mxCell>
        <mxCell id="D-Ly7Y-iKg0-jCqWXi5g-167" style="edgeStyle=orthogonalEdgeStyle;rounded=0;orthogonalLoop=1;jettySize=auto;html=1;exitX=0;exitY=1;exitDx=0;exitDy=0;entryX=0.84;entryY=0.017;entryDx=0;entryDy=0;entryPerimeter=0;" parent="1" source="D-Ly7Y-iKg0-jCqWXi5g-162" target="D-Ly7Y-iKg0-jCqWXi5g-140" edge="1">
          <mxGeometry relative="1" as="geometry" />
        </mxCell>
        <mxCell id="D-Ly7Y-iKg0-jCqWXi5g-170" value="(1,n)" style="text;html=1;align=center;verticalAlign=middle;whiteSpace=wrap;rounded=0;" parent="1" vertex="1">
          <mxGeometry x="180" y="815" width="60" height="30" as="geometry" />
        </mxCell>
        <mxCell id="D-Ly7Y-iKg0-jCqWXi5g-171" value="(1,n)" style="text;html=1;align=center;verticalAlign=middle;whiteSpace=wrap;rounded=0;" parent="1" vertex="1">
          <mxGeometry x="400" y="960" width="60" height="30" as="geometry" />
        </mxCell>
        <mxCell id="D-Ly7Y-iKg0-jCqWXi5g-172" value="(0,1)" style="text;html=1;align=center;verticalAlign=middle;whiteSpace=wrap;rounded=0;" parent="1" vertex="1">
          <mxGeometry x="400" y="670" width="60" height="30" as="geometry" />
        </mxCell>
        <mxCell id="D-Ly7Y-iKg0-jCqWXi5g-173" value="(1,1)" style="text;html=1;align=center;verticalAlign=middle;whiteSpace=wrap;rounded=0;" parent="1" vertex="1">
          <mxGeometry x="410" y="860" width="60" height="30" as="geometry" />
        </mxCell>
      </root>
    </mxGraphModel>
  </diagram>
  <diagram id="KSRcBGxv-vowRfBCfffw" name="Page-2">
    <mxGraphModel dx="1079" dy="446" grid="1" gridSize="10" guides="1" tooltips="1" connect="1" arrows="1" fold="1" page="1" pageScale="1" pageWidth="850" pageHeight="1100" math="0" shadow="0">
      <root>
        <mxCell id="0" />
        <mxCell id="1" parent="0" />
        <mxCell id="XFxMK21Exx0dzvX5mHUX-1" value="Cliente" style="whiteSpace=wrap;html=1;align=center;" vertex="1" parent="1">
          <mxGeometry x="50" y="130" width="100" height="40" as="geometry" />
        </mxCell>
        <mxCell id="XFxMK21Exx0dzvX5mHUX-4" value="Socio" style="whiteSpace=wrap;html=1;align=center;" vertex="1" parent="1">
          <mxGeometry x="375" y="130" width="100" height="40" as="geometry" />
        </mxCell>
        <mxCell id="-Pn-LBWPLqHIt7q4niUV-3" style="edgeStyle=orthogonalEdgeStyle;rounded=0;orthogonalLoop=1;jettySize=auto;html=1;exitX=0.5;exitY=1;exitDx=0;exitDy=0;entryX=0;entryY=0.5;entryDx=0;entryDy=0;" edge="1" parent="1" source="XFxMK21Exx0dzvX5mHUX-5" target="-Pn-LBWPLqHIt7q4niUV-2">
          <mxGeometry relative="1" as="geometry" />
        </mxCell>
        <mxCell id="XFxMK21Exx0dzvX5mHUX-5" value="Libros" style="whiteSpace=wrap;html=1;align=center;" vertex="1" parent="1">
          <mxGeometry x="460" y="470" width="100" height="40" as="geometry" />
        </mxCell>
        <mxCell id="XFxMK21Exx0dzvX5mHUX-7" value="Hoja de pedido" style="whiteSpace=wrap;html=1;align=center;" vertex="1" parent="1">
          <mxGeometry x="140" y="340" width="100" height="40" as="geometry" />
        </mxCell>
        <mxCell id="XFxMK21Exx0dzvX5mHUX-8" value="Población" style="whiteSpace=wrap;html=1;align=center;" vertex="1" parent="1">
          <mxGeometry x="720" y="130" width="100" height="40" as="geometry" />
        </mxCell>
        <mxCell id="XFxMK21Exx0dzvX5mHUX-9" value="Provincia" style="whiteSpace=wrap;html=1;align=center;" vertex="1" parent="1">
          <mxGeometry x="720" y="290" width="100" height="40" as="geometry" />
        </mxCell>
        <mxCell id="XFxMK21Exx0dzvX5mHUX-10" value="Almacen" style="whiteSpace=wrap;html=1;align=center;" vertex="1" parent="1">
          <mxGeometry x="435" y="290" width="100" height="40" as="geometry" />
        </mxCell>
        <mxCell id="XFxMK21Exx0dzvX5mHUX-11" value="Coleccion" style="whiteSpace=wrap;html=1;align=center;" vertex="1" parent="1">
          <mxGeometry x="560" y="620" width="100" height="40" as="geometry" />
        </mxCell>
        <mxCell id="XFxMK21Exx0dzvX5mHUX-13" style="edgeStyle=orthogonalEdgeStyle;rounded=0;orthogonalLoop=1;jettySize=auto;html=1;exitX=0;exitY=0.5;exitDx=0;exitDy=0;entryX=1;entryY=0.5;entryDx=0;entryDy=0;" edge="1" parent="1" source="XFxMK21Exx0dzvX5mHUX-12" target="XFxMK21Exx0dzvX5mHUX-1">
          <mxGeometry relative="1" as="geometry" />
        </mxCell>
        <mxCell id="XFxMK21Exx0dzvX5mHUX-14" style="edgeStyle=orthogonalEdgeStyle;rounded=0;orthogonalLoop=1;jettySize=auto;html=1;exitX=1;exitY=0.5;exitDx=0;exitDy=0;entryX=0;entryY=0.5;entryDx=0;entryDy=0;" edge="1" parent="1" source="XFxMK21Exx0dzvX5mHUX-12" target="XFxMK21Exx0dzvX5mHUX-4">
          <mxGeometry relative="1" as="geometry" />
        </mxCell>
        <mxCell id="XFxMK21Exx0dzvX5mHUX-12" value="Se hace" style="shape=rhombus;perimeter=rhombusPerimeter;whiteSpace=wrap;html=1;align=center;" vertex="1" parent="1">
          <mxGeometry x="200" y="120" width="120" height="60" as="geometry" />
        </mxCell>
        <mxCell id="XFxMK21Exx0dzvX5mHUX-15" value="Avala" style="shape=rhombus;perimeter=rhombusPerimeter;whiteSpace=wrap;html=1;align=center;" vertex="1" parent="1">
          <mxGeometry x="365" y="30" width="120" height="60" as="geometry" />
        </mxCell>
        <mxCell id="XFxMK21Exx0dzvX5mHUX-18" style="edgeStyle=orthogonalEdgeStyle;rounded=0;orthogonalLoop=1;jettySize=auto;html=1;exitX=0;exitY=0.5;exitDx=0;exitDy=0;entryX=0.113;entryY=0.033;entryDx=0;entryDy=0;entryPerimeter=0;" edge="1" parent="1" source="XFxMK21Exx0dzvX5mHUX-15" target="XFxMK21Exx0dzvX5mHUX-4">
          <mxGeometry relative="1" as="geometry" />
        </mxCell>
        <mxCell id="XFxMK21Exx0dzvX5mHUX-19" style="edgeStyle=orthogonalEdgeStyle;rounded=0;orthogonalLoop=1;jettySize=auto;html=1;exitX=1;exitY=0.5;exitDx=0;exitDy=0;entryX=0.887;entryY=0.017;entryDx=0;entryDy=0;entryPerimeter=0;" edge="1" parent="1" source="XFxMK21Exx0dzvX5mHUX-15" target="XFxMK21Exx0dzvX5mHUX-4">
          <mxGeometry relative="1" as="geometry" />
        </mxCell>
        <mxCell id="XFxMK21Exx0dzvX5mHUX-21" style="edgeStyle=orthogonalEdgeStyle;rounded=0;orthogonalLoop=1;jettySize=auto;html=1;exitX=0.5;exitY=0;exitDx=0;exitDy=0;entryX=0.5;entryY=1;entryDx=0;entryDy=0;" edge="1" parent="1" source="XFxMK21Exx0dzvX5mHUX-20" target="XFxMK21Exx0dzvX5mHUX-4">
          <mxGeometry relative="1" as="geometry" />
        </mxCell>
        <mxCell id="XFxMK21Exx0dzvX5mHUX-22" style="edgeStyle=orthogonalEdgeStyle;rounded=0;orthogonalLoop=1;jettySize=auto;html=1;exitX=0.5;exitY=1;exitDx=0;exitDy=0;entryX=0.5;entryY=0;entryDx=0;entryDy=0;" edge="1" parent="1" source="XFxMK21Exx0dzvX5mHUX-20" target="XFxMK21Exx0dzvX5mHUX-7">
          <mxGeometry relative="1" as="geometry" />
        </mxCell>
        <mxCell id="XFxMK21Exx0dzvX5mHUX-20" value="Envia" style="shape=rhombus;perimeter=rhombusPerimeter;whiteSpace=wrap;html=1;align=center;" vertex="1" parent="1">
          <mxGeometry x="270" y="220" width="120" height="60" as="geometry" />
        </mxCell>
        <mxCell id="XFxMK21Exx0dzvX5mHUX-24" style="edgeStyle=orthogonalEdgeStyle;rounded=0;orthogonalLoop=1;jettySize=auto;html=1;exitX=1;exitY=0.5;exitDx=0;exitDy=0;entryX=0;entryY=0.5;entryDx=0;entryDy=0;" edge="1" parent="1" source="XFxMK21Exx0dzvX5mHUX-23" target="XFxMK21Exx0dzvX5mHUX-5">
          <mxGeometry relative="1" as="geometry" />
        </mxCell>
        <mxCell id="XFxMK21Exx0dzvX5mHUX-25" style="edgeStyle=orthogonalEdgeStyle;rounded=0;orthogonalLoop=1;jettySize=auto;html=1;exitX=0;exitY=0.5;exitDx=0;exitDy=0;entryX=1;entryY=0.5;entryDx=0;entryDy=0;" edge="1" parent="1" source="XFxMK21Exx0dzvX5mHUX-23" target="XFxMK21Exx0dzvX5mHUX-7">
          <mxGeometry relative="1" as="geometry" />
        </mxCell>
        <mxCell id="XFxMK21Exx0dzvX5mHUX-23" value="Contiene" style="shape=rhombus;perimeter=rhombusPerimeter;whiteSpace=wrap;html=1;align=center;" vertex="1" parent="1">
          <mxGeometry x="280" y="410" width="120" height="60" as="geometry" />
        </mxCell>
        <mxCell id="8XkEPTl7Y5JcX04udwB--2" style="edgeStyle=orthogonalEdgeStyle;rounded=0;orthogonalLoop=1;jettySize=auto;html=1;exitX=0;exitY=0.5;exitDx=0;exitDy=0;entryX=1;entryY=0.5;entryDx=0;entryDy=0;" edge="1" parent="1" source="8XkEPTl7Y5JcX04udwB--1" target="XFxMK21Exx0dzvX5mHUX-4">
          <mxGeometry relative="1" as="geometry" />
        </mxCell>
        <mxCell id="8XkEPTl7Y5JcX04udwB--3" style="edgeStyle=orthogonalEdgeStyle;rounded=0;orthogonalLoop=1;jettySize=auto;html=1;exitX=1;exitY=0.5;exitDx=0;exitDy=0;entryX=0;entryY=0.5;entryDx=0;entryDy=0;" edge="1" parent="1" source="8XkEPTl7Y5JcX04udwB--1" target="XFxMK21Exx0dzvX5mHUX-8">
          <mxGeometry relative="1" as="geometry" />
        </mxCell>
        <mxCell id="8XkEPTl7Y5JcX04udwB--1" value="Vive" style="shape=rhombus;perimeter=rhombusPerimeter;whiteSpace=wrap;html=1;align=center;" vertex="1" parent="1">
          <mxGeometry x="540" y="120" width="120" height="60" as="geometry" />
        </mxCell>
        <mxCell id="-Pn-LBWPLqHIt7q4niUV-1" value="Libro" style="whiteSpace=wrap;html=1;align=center;" vertex="1" parent="1">
          <mxGeometry x="350" y="620" width="100" height="40" as="geometry" />
        </mxCell>
        <mxCell id="-Pn-LBWPLqHIt7q4niUV-5" style="edgeStyle=orthogonalEdgeStyle;rounded=0;orthogonalLoop=1;jettySize=auto;html=1;exitX=0.5;exitY=1;exitDx=0;exitDy=0;entryX=0.75;entryY=0;entryDx=0;entryDy=0;" edge="1" parent="1" source="-Pn-LBWPLqHIt7q4niUV-2" target="-Pn-LBWPLqHIt7q4niUV-1">
          <mxGeometry relative="1" as="geometry" />
        </mxCell>
        <mxCell id="-Pn-LBWPLqHIt7q4niUV-2" value="" style="triangle;whiteSpace=wrap;html=1;rotation=90;" vertex="1" parent="1">
          <mxGeometry x="480" y="540" width="60" height="80" as="geometry" />
        </mxCell>
        <mxCell id="-Pn-LBWPLqHIt7q4niUV-4" style="edgeStyle=orthogonalEdgeStyle;rounded=0;orthogonalLoop=1;jettySize=auto;html=1;exitX=0.5;exitY=0;exitDx=0;exitDy=0;entryX=0.577;entryY=0.067;entryDx=0;entryDy=0;entryPerimeter=0;" edge="1" parent="1" source="-Pn-LBWPLqHIt7q4niUV-2" target="XFxMK21Exx0dzvX5mHUX-11">
          <mxGeometry relative="1" as="geometry">
            <Array as="points">
              <mxPoint x="618" y="580" />
            </Array>
          </mxGeometry>
        </mxCell>
        <mxCell id="-Pn-LBWPLqHIt7q4niUV-8" style="edgeStyle=orthogonalEdgeStyle;rounded=0;orthogonalLoop=1;jettySize=auto;html=1;exitX=0.5;exitY=1;exitDx=0;exitDy=0;entryX=0.5;entryY=0;entryDx=0;entryDy=0;" edge="1" parent="1" source="-Pn-LBWPLqHIt7q4niUV-6" target="XFxMK21Exx0dzvX5mHUX-9">
          <mxGeometry relative="1" as="geometry" />
        </mxCell>
        <mxCell id="-Pn-LBWPLqHIt7q4niUV-9" style="edgeStyle=orthogonalEdgeStyle;rounded=0;orthogonalLoop=1;jettySize=auto;html=1;exitX=0.5;exitY=0;exitDx=0;exitDy=0;entryX=0.5;entryY=1;entryDx=0;entryDy=0;" edge="1" parent="1" source="-Pn-LBWPLqHIt7q4niUV-6" target="XFxMK21Exx0dzvX5mHUX-8">
          <mxGeometry relative="1" as="geometry" />
        </mxCell>
        <mxCell id="-Pn-LBWPLqHIt7q4niUV-6" value="Pertenece" style="shape=rhombus;perimeter=rhombusPerimeter;whiteSpace=wrap;html=1;align=center;" vertex="1" parent="1">
          <mxGeometry x="710" y="200" width="120" height="60" as="geometry" />
        </mxCell>
        <mxCell id="-Pn-LBWPLqHIt7q4niUV-14" style="edgeStyle=orthogonalEdgeStyle;rounded=0;orthogonalLoop=1;jettySize=auto;html=1;exitX=0;exitY=0.5;exitDx=0;exitDy=0;entryX=1;entryY=0.5;entryDx=0;entryDy=0;" edge="1" parent="1" source="-Pn-LBWPLqHIt7q4niUV-10" target="XFxMK21Exx0dzvX5mHUX-10">
          <mxGeometry relative="1" as="geometry">
            <Array as="points">
              <mxPoint x="560" y="275" />
              <mxPoint x="560" y="310" />
            </Array>
          </mxGeometry>
        </mxCell>
        <mxCell id="-Pn-LBWPLqHIt7q4niUV-15" style="edgeStyle=orthogonalEdgeStyle;rounded=0;orthogonalLoop=1;jettySize=auto;html=1;exitX=1;exitY=0.5;exitDx=0;exitDy=0;entryX=0;entryY=0.5;entryDx=0;entryDy=0;" edge="1" parent="1" source="-Pn-LBWPLqHIt7q4niUV-10" target="XFxMK21Exx0dzvX5mHUX-9">
          <mxGeometry relative="1" as="geometry">
            <Array as="points">
              <mxPoint x="700" y="275" />
              <mxPoint x="700" y="310" />
            </Array>
          </mxGeometry>
        </mxCell>
        <mxCell id="-Pn-LBWPLqHIt7q4niUV-10" value="Se situa" style="shape=rhombus;perimeter=rhombusPerimeter;whiteSpace=wrap;html=1;align=center;" vertex="1" parent="1">
          <mxGeometry x="570" y="245" width="120" height="60" as="geometry" />
        </mxCell>
        <mxCell id="-Pn-LBWPLqHIt7q4niUV-12" style="edgeStyle=orthogonalEdgeStyle;rounded=0;orthogonalLoop=1;jettySize=auto;html=1;exitX=0.5;exitY=0;exitDx=0;exitDy=0;entryX=0.5;entryY=1;entryDx=0;entryDy=0;" edge="1" parent="1" source="-Pn-LBWPLqHIt7q4niUV-11" target="XFxMK21Exx0dzvX5mHUX-10">
          <mxGeometry relative="1" as="geometry" />
        </mxCell>
        <mxCell id="-Pn-LBWPLqHIt7q4niUV-13" style="edgeStyle=orthogonalEdgeStyle;rounded=0;orthogonalLoop=1;jettySize=auto;html=1;exitX=0.5;exitY=1;exitDx=0;exitDy=0;entryX=0.5;entryY=0;entryDx=0;entryDy=0;" edge="1" parent="1" source="-Pn-LBWPLqHIt7q4niUV-11" target="XFxMK21Exx0dzvX5mHUX-5">
          <mxGeometry relative="1" as="geometry" />
        </mxCell>
        <mxCell id="-Pn-LBWPLqHIt7q4niUV-11" value="Tiene" style="shape=rhombus;perimeter=rhombusPerimeter;whiteSpace=wrap;html=1;align=center;" vertex="1" parent="1">
          <mxGeometry x="425" y="370" width="120" height="60" as="geometry" />
        </mxCell>
        <mxCell id="-Pn-LBWPLqHIt7q4niUV-20" value="(1,n)" style="text;html=1;align=center;verticalAlign=middle;whiteSpace=wrap;rounded=0;" vertex="1" parent="1">
          <mxGeometry x="395" y="10" width="60" height="30" as="geometry" />
        </mxCell>
        <mxCell id="-Pn-LBWPLqHIt7q4niUV-21" value="(1,n)" style="text;html=1;align=center;verticalAlign=middle;whiteSpace=wrap;rounded=0;" vertex="1" parent="1">
          <mxGeometry x="570" y="90" width="60" height="30" as="geometry" />
        </mxCell>
        <mxCell id="-Pn-LBWPLqHIt7q4niUV-22" value="(1,n)" style="text;html=1;align=center;verticalAlign=middle;whiteSpace=wrap;rounded=0;" vertex="1" parent="1">
          <mxGeometry x="650" y="215" width="60" height="30" as="geometry" />
        </mxCell>
        <mxCell id="-Pn-LBWPLqHIt7q4niUV-23" value="(1,n)" style="text;html=1;align=center;verticalAlign=middle;whiteSpace=wrap;rounded=0;" vertex="1" parent="1">
          <mxGeometry x="220" y="235" width="60" height="30" as="geometry" />
        </mxCell>
        <mxCell id="-Pn-LBWPLqHIt7q4niUV-24" value="(n,m)" style="text;html=1;align=center;verticalAlign=middle;whiteSpace=wrap;rounded=0;" vertex="1" parent="1">
          <mxGeometry x="310" y="385" width="60" height="30" as="geometry" />
        </mxCell>
        <mxCell id="-Pn-LBWPLqHIt7q4niUV-25" value="(1,n)" style="text;html=1;align=center;verticalAlign=middle;whiteSpace=wrap;rounded=0;" vertex="1" parent="1">
          <mxGeometry x="530" y="385" width="60" height="30" as="geometry" />
        </mxCell>
        <mxCell id="-Pn-LBWPLqHIt7q4niUV-26" value="(1,1)" style="text;html=1;align=center;verticalAlign=middle;whiteSpace=wrap;rounded=0;" vertex="1" parent="1">
          <mxGeometry x="600" y="220" width="60" height="30" as="geometry" />
        </mxCell>
        <mxCell id="-Pn-LBWPLqHIt7q4niUV-28" style="edgeStyle=orthogonalEdgeStyle;rounded=0;orthogonalLoop=1;jettySize=auto;html=1;exitX=1;exitY=0.5;exitDx=0;exitDy=0;entryX=0.25;entryY=1;entryDx=0;entryDy=0;" edge="1" parent="1" source="-Pn-LBWPLqHIt7q4niUV-27" target="XFxMK21Exx0dzvX5mHUX-9">
          <mxGeometry relative="1" as="geometry" />
        </mxCell>
        <mxCell id="-Pn-LBWPLqHIt7q4niUV-29" style="edgeStyle=orthogonalEdgeStyle;rounded=0;orthogonalLoop=1;jettySize=auto;html=1;exitX=0;exitY=0.5;exitDx=0;exitDy=0;entryX=0.75;entryY=1;entryDx=0;entryDy=0;" edge="1" parent="1" source="-Pn-LBWPLqHIt7q4niUV-27" target="XFxMK21Exx0dzvX5mHUX-10">
          <mxGeometry relative="1" as="geometry" />
        </mxCell>
        <mxCell id="-Pn-LBWPLqHIt7q4niUV-27" value="Surte" style="shape=rhombus;perimeter=rhombusPerimeter;whiteSpace=wrap;html=1;align=center;" vertex="1" parent="1">
          <mxGeometry x="570" y="325" width="120" height="60" as="geometry" />
        </mxCell>
        <mxCell id="-Pn-LBWPLqHIt7q4niUV-30" value="(1.n)" style="text;html=1;align=center;verticalAlign=middle;whiteSpace=wrap;rounded=0;" vertex="1" parent="1">
          <mxGeometry x="600" y="385" width="60" height="30" as="geometry" />
        </mxCell>
      </root>
    </mxGraphModel>
  </diagram>
</mxfile>
